<svg xmlns="http://www.w3.org/2000/svg" version="1.1" xmlns:xlink="http://www.w3.org/1999/xlink" xmlns:svgjs="http://svgjs.dev/svgjs" width="1000" height="1000" viewBox="0 0 1000 1000"><rect width="1000" height="1000" fill="#ffffff"></rect><g transform="matrix(0.7,0,0,0.7,149.57575757575756,285.838172725234)"><svg viewBox="0 0 396 242" data-background-color="#fffcfc" preserveAspectRatio="xMidYMid meet" height="611" width="1000" xmlns="http://www.w3.org/2000/svg" xmlns:xlink="http://www.w3.org/1999/xlink"><g id="tight-bounds" transform="matrix(1,0,0,1,0.2400000000000091,0.17643722350565838)"><svg viewBox="0 0 395.52 212.17618507669627" height="212.17618507669627" width="395.52"><g><svg viewBox="0 0 395.52 212.17618507669627" height="212.17618507669627" width="395.52"><g><svg viewBox="0 0 395.52 212.17618507669627" height="212.17618507669627" width="395.52"><g id="textblocktransform"><svg viewBox="0 0 395.52 212.17618507669627" height="212.17618507669627" width="395.52" id="textblock"><g><rect width="395.52" height="167.65376574322664" fill="none" stroke-width="8.962371322224001" stroke="#000000" data-fill-palette-color="none" data-stroke-palette-color="tertiary"></rect><rect width="395.52" height="73.99335980976207" y="167.65376574322664" fill="#000000" data-fill-palette-color="tertiary"></rect></g><g><svg viewBox="0 0 395.52 166.65376574322664" height="166.65376574322664" width="395.52"><g transform="matrix(1,0,0,1,23.461705032,23.461705032)"><svg width="348.596589936" viewBox="-0.15000000596046448 -39.599998474121094 136.5399932861328 46.89999771118164" height="119.73035567922665" data-palette-color="#000000"><path d="M21.15-18.15L21.15-18.15Q21.15-21.35 17.8-21.35L17.8-21.35Q17.4-21.35 16.93-21.3 16.45-21.25 16.32-21.43 16.2-21.6 16.4-21.8L16.4-21.8Q16.85-22.4 19.38-22.4 21.9-22.4 22.7-20.2L22.7-20.2Q23.05-19.35 23.05-18.4L23.05-18.4Q23.05-16.25 21.45-13.5L21.45-13.5Q18.75-9 14-7.1L14-7.1Q11.55-6.1 8.58-6.1 5.6-6.1 3.18-8.13 0.75-10.15 0-13.85L0-13.85Q-0.15-14.8-0.15-15.9L-0.15-15.9Q-0.15-18.9 1.45-22.88 3.05-26.85 6.8-30.5L6.8-30.5Q13.9-37.5 21.8-39.15L21.8-39.15Q24-39.6 25.65-39.6 27.3-39.6 28.45-39.45L28.45-39.45Q31.55-39 33.3-36.5L33.3-36.5Q34.7-34.55 34.7-31.55L34.7-31.55Q34.7-28.85 34.1-27.03 33.5-25.2 33.3-24.63 33.1-24.05 32.58-22.85 32.05-21.65 31.9-21.3 31.75-20.95 31.1-19.5L31.1-19.5Q29-14.95 29.1-14.9L29.1-14.9 30.65-17.4Q33.7-22.1 37.25-26.4L37.25-26.4Q43.85-34.4 49.1-36.8L49.1-36.8Q52.05-38.2 54.25-38.2 56.45-38.2 57.93-37.13 59.4-36.05 59.4-33.45 59.4-30.85 57.75-27.13 56.1-23.4 52.93-17.6 49.75-11.8 47.55-7.05 45.35-2.3 45.35 1.4L45.35 1.4Q45.35 2.7 45.7 3.75L45.7 3.75Q46.4 6.05 48.4 6.05L48.4 6.05Q49.5 6.05 50.68 5.5 51.85 4.95 52.45 4.95 53.05 4.95 53.05 5.6 53.05 6.25 52.1 6.78 51.15 7.3 50.55 7.3L50.55 7.3Q42.55 7.3 42.55 0.35L42.55 0.35Q42.55-2.2 43.43-4.8 44.3-7.4 49.65-18.65 55-29.9 55.45-32.85L55.45-32.85Q55.55-33.3 55.55-33.7L55.55-33.7Q55.55-35.8 53.1-35.8L53.1-35.8Q51.45-35.8 49.35-34.7L49.35-34.7Q41.5-30.95 34.4-20.35L34.4-20.35Q30.2-14.1 24.85-2.6L24.85-2.6Q22.9 1.6 22.8 1.8L22.8 1.8Q22.1 3.25 20 3.25L20 3.25Q18.75 3.25 18.65 2.45L18.65 2.45Q18.6 2.3 18.65 2.1L18.65 2.1Q21.05-1.45 25.38-11.03 29.7-20.6 31.3-27.7L31.3-27.7Q31.8-30.05 31.8-31.88 31.8-33.7 31.3-35L31.3-35Q30.25-37.65 27.75-38.05L27.75-38.05Q27-38.15 25.65-38.15 24.3-38.15 21.63-37.38 18.95-36.6 15.6-34.5L15.6-34.5Q8.05-29.8 4.65-22.25L4.65-22.25Q2.8-18.15 2.8-14.7L2.8-14.7Q2.8-12.95 3.25-11.4L3.25-11.4Q4.9-7.25 9.05-7.05L9.05-7.05Q14.2-7.05 18.05-11.35L18.05-11.35Q21.15-14.8 21.15-18.15ZM53.05-2.9L53.05-2.9Q53.05-5.05 54.9-8.1L54.9-8.1Q54.1-8.1 54.45-8.9L54.45-8.9 55.35-10.65Q57.05-13.9 58.15-16.15L58.15-16.15Q58.65-17.2 60.1-17.2L60.1-17.2 63.15-17.2Q61.35-15.9 59.52-12.18 57.7-8.45 56.7-6.33 55.7-4.2 55.7-3.1 55.7-2 56.07-1.55 56.45-1.1 57.1-1.1L57.1-1.1Q58.05-1.1 59.75-3.1L59.75-3.1Q62.4-6.2 67.2-16.15L67.2-16.15Q67.75-17.2 69.15-17.2L69.15-17.2 71.85-17.2Q70.75-16.35 70.12-15.45 69.5-14.55 68.4-12.25L68.4-12.25Q65.4-6.25 65.05-4.3L65.05-4.3Q64.9-3.6 64.9-3L64.9-3Q64.9-1.4 66-1.3L66-1.3Q68.7-1.3 72.65-9.65L72.65-9.65Q72.95-10.35 73.25-10.2 73.55-10.05 73.55-9.8 73.55-9.55 73.1-8.65 72.65-7.75 72.22-6.9 71.8-6.05 70.92-4.58 70.05-3.1 69.3-2.25L69.3-2.25Q67.35-0.05 65.47-0.05 63.6-0.05 62.9-1.7L62.9-1.7Q62.6-2.45 62.6-3.6 62.6-4.75 63.1-6.45L63.1-6.45Q59.45-0.05 56.35-0.05L56.35-0.05Q53.65-0.05 53.2-2.3L53.2-2.3Q53.05-2.55 53.05-2.9ZM81.85-11.5L81.85-11.5Q83.6-13.6 83.6-15.05 83.6-16.5 82.4-16.5L82.4-16.5Q80.05-16.5 77.05-12.2L77.05-12.2Q76.1-10.85 75.2-8.65 74.3-6.45 74.3-4.67 74.3-2.9 75.02-1.8 75.75-0.7 77.27-0.7 78.8-0.7 80.1-1.43 81.4-2.15 82.57-3.73 83.75-5.3 84.35-6.35 84.95-7.4 86-9.5L86-9.5Q86.35-10.2 86.6-10.08 86.85-9.95 86.85-9.73 86.85-9.5 86.17-8.08 85.5-6.65 84.82-5.4 84.15-4.15 82.9-2.6L82.9-2.6Q80.65 0.2 76.75 0.2L76.75 0.2Q73.95 0.2 72.72-1.18 71.5-2.55 71.5-4.35L71.5-4.35Q71.5-6.55 72.57-9.15 73.65-11.75 75.05-13.65L75.05-13.65Q77.95-17.6 81.75-17.6L81.75-17.6Q83.6-17.6 84.42-16.73 85.25-15.85 85.25-14.7L85.25-14.7Q85.25-13 83.85-11.8L83.85-11.8Q83.15-11.15 82.67-11.15 82.2-11.15 81.85-11.5ZM88.39-9.65Q88.34-9.45 87.94-8.28 87.54-7.1 87.27-6.03 86.99-4.95 86.99-3.88 86.99-2.8 87.49-1.88 87.99-0.95 89.09-0.95L89.09-0.95Q90.89-0.95 92.59-3.38 94.29-5.8 96.19-9.55L96.19-9.55Q96.59-10.25 96.94-10.1L96.94-10.1Q97.19-9.9 97.04-9.58 96.89-9.25 96.42-8.18 95.94-7.1 95.72-6.68 95.49-6.25 94.92-5.18 94.34-4.1 93.92-3.58 93.49-3.05 92.77-2.23 92.04-1.4 91.39-1L91.39-1Q89.64 0.1 88.09 0.1 86.54 0.1 85.69-0.58 84.84-1.25 84.67-2.02 84.49-2.8 84.49-3.4 84.49-4 84.54-4.95L84.54-4.95Q84.69-6.55 85.17-8.05 85.64-9.55 85.69-9.75L85.69-9.75Q86.84-13.9 88.97-18.8 91.09-23.7 92.57-26.18 94.04-28.65 94.89-29.55L94.89-29.55Q96.59-31.35 98.24-31.35L98.24-31.35Q99.39-31.35 99.79-29.7L99.79-29.7Q99.84-29.4 99.84-28.95L99.84-28.95Q99.84-27.25 98.64-24.65L98.64-24.65Q94.34-15.1 88.39-9.65L88.39-9.65ZM88.79-11.25Q91.34-13.85 93.84-17.8 96.34-21.75 97.52-24.53 98.69-27.3 98.69-28.3 98.69-29.3 98.34-29.3L98.34-29.3Q97.84-29.3 96.44-27.33 95.04-25.35 92.67-20.23 90.29-15.1 88.79-11.25L88.79-11.25ZM103.09-19.45Q102.39-18.85 101.54-18.85 100.69-18.85 100.19-19.45 99.69-20.05 99.79-20.9L99.79-20.9Q99.94-21.75 100.64-22.35 101.34-22.95 102.19-22.95 103.04-22.95 103.57-22.35 104.09-21.75 103.94-20.9 103.79-20.05 103.09-19.45ZM98.19-1.1L98.19-1.1Q99.14-1.1 100.19-2.05L100.19-2.05Q102.04-3.9 104.89-9.6L104.89-9.6Q105.24-10.35 105.59-10.05L105.59-10.05Q105.69-9.95 105.69-9.73 105.69-9.5 105.29-8.63 104.89-7.75 104.57-7.05 104.24-6.35 103.32-4.78 102.39-3.2 101.64-2.35L101.64-2.35Q99.59 0 97.77 0 95.94 0 95.14-1.1 94.34-2.2 94.34-3.55 94.34-4.9 94.99-6.5L94.99-6.5 98.19-14.65Q98.29-14.95 98.29-15.45 98.29-15.95 97.69-16.75L97.69-16.75 100.44-16.8Q101.59-16.8 101.79-16.38 101.99-15.95 101.49-15.05L101.49-15.05 97.49-5.7Q96.64-3.85 96.64-2.55L96.64-2.55Q96.64-1.1 98.19-1.1ZM103.19-2.9L103.19-2.9Q103.19-5.05 105.04-8.1L105.04-8.1Q104.24-8.1 104.59-8.9L104.59-8.9 105.49-10.65Q107.19-13.9 108.29-16.15L108.29-16.15Q108.79-17.2 110.24-17.2L110.24-17.2 113.29-17.2Q111.49-15.9 109.66-12.18 107.84-8.45 106.84-6.33 105.84-4.2 105.84-3.1 105.84-2 106.21-1.55 106.59-1.1 107.24-1.1L107.24-1.1Q108.19-1.1 109.89-3.1L109.89-3.1Q112.54-6.2 117.34-16.15L117.34-16.15Q117.89-17.2 119.29-17.2L119.29-17.2 121.99-17.2Q120.89-16.35 120.26-15.45 119.64-14.55 118.54-12.25L118.54-12.25Q115.54-6.25 115.19-4.3L115.19-4.3Q115.04-3.6 115.04-3L115.04-3Q115.04-1.4 116.14-1.3L116.14-1.3Q118.84-1.3 122.79-9.65L122.79-9.65Q123.09-10.35 123.39-10.2 123.69-10.05 123.69-9.8 123.69-9.55 123.24-8.65 122.79-7.75 122.36-6.9 121.94-6.05 121.06-4.58 120.19-3.1 119.44-2.25L119.44-2.25Q117.49-0.05 115.61-0.05 113.74-0.05 113.04-1.7L113.04-1.7Q112.74-2.45 112.74-3.6 112.74-4.75 113.24-6.45L113.24-6.45Q109.59-0.05 106.49-0.05L106.49-0.05Q103.79-0.05 103.34-2.3L103.34-2.3Q103.19-2.55 103.19-2.9ZM126.99-0.95L126.99-0.95Q127.64-0.85 127.89-0.85L127.89-0.85Q129.89-0.85 131.84-3.2L131.84-3.2Q132.89-4.5 135.59-9.75L135.59-9.75Q135.69-10 135.94-10L135.94-10Q136.39-10.05 136.39-9.65L136.39-9.65Q136.39-9.55 136.16-9.08 135.94-8.6 135.74-8.13 135.54-7.65 135.09-6.75 134.64-5.85 134.31-5.3 133.99-4.75 133.49-3.95 132.99-3.15 132.49-2.7L132.49-2.7 131.44-1.6Q130.59-0.75 129.44-0.4L129.44-0.4Q127.59 0.2 125.84-0.3L125.84-0.3Q124.69 0.2 123.79 0.2L123.79 0.2Q120.24 0.2 119.49-2.6L119.49-2.6Q119.34-3.25 119.34-4.17 119.34-5.1 119.96-5.95 120.59-6.8 121.29-6.85L121.29-6.85Q123.84-11.7 125.64-15.6L125.64-15.6Q127.64-19.85 130.29-19.85L130.29-19.85Q130.99-19.85 131.66-19.53 132.34-19.2 132.16-18.8 131.99-18.4 131.44-18.65 130.89-18.9 130.49-18.9 130.09-18.9 129.79-18.75L129.79-18.75Q128.09-17.95 128.09-15.3L128.09-15.3Q128.09-13.9 128.49-13 128.89-12.1 129.39-11.05L129.39-11.05Q130.54-8.45 130.54-6.8L130.54-6.8Q130.54-5.15 129.49-3.55 128.44-1.95 126.99-0.95ZM125.29-1.3L125.29-1.3Q127.49-3 127.49-6.8L127.49-6.8Q127.49-8.35 127.14-11.05 126.79-13.75 126.79-14.7 126.79-15.65 126.84-16L126.84-16Q123.04-8.4 122.14-6.75L122.14-6.75Q123.19-6.75 123.19-5.25L123.19-5.25Q123.19-2.3 125.29-1.3ZM121.54-2.65L121.54-2.65Q121.54-2.35 121.59-2L121.59-2Q121.99-0.65 123.44-0.65L123.44-0.65Q124.04-0.65 124.44-0.85L124.44-0.85Q122.59-2 122.44-4.6L122.44-4.6Q121.54-3.7 121.54-2.65Z" opacity="1" transform="matrix(1,0,0,1,0,0)" fill="#000000" class="undefined-text-0" data-fill-palette-color="primary" id="text-0"></path></svg></g></svg></g><g transform="matrix(1,0,0,1,75.54432,166.65376574322664)"><svg viewBox="0 0 244.43135999999998 45.522419333469635" height="45.522419333469635" width="244.43135999999998"><rect width="244.43135999999998" height="45.522419333469635" x="0" y="0" opacity="1" fill="#000000" data-fill-palette-color="tertiary"></rect><g transform="matrix(1,0,0,1,20,3.2)"><svg width="204.43135999999998" viewBox="6.099999904632568 -37.099998474121094 244.52999877929688 46.79999923706055" height="39.12241933346964" data-palette-color="#f4f5e9"><path d="M6.1 0L6.1-35 8.65-35 8.65-2.3 28.8-2.3 28.8 0 6.1 0ZM44.8-2.05Q47.35-2.05 49.52-2.98 51.7-3.9 53.15-5.7L53.15-5.7 54.6-4.05Q52.9-1.95 50.35-0.88 47.8 0.2 44.75 0.2L44.75 0.2Q40.85 0.2 37.77-1.5 34.7-3.2 32.97-6.2 31.25-9.2 31.25-13.05L31.25-13.05Q31.25-16.9 32.87-19.9 34.5-22.9 37.4-24.6 40.3-26.3 43.95-26.3L43.95-26.3Q47.35-26.3 50.07-24.73 52.8-23.15 54.42-20.38 56.05-17.6 56.2-14.15L56.2-14.15 34.15-9.85Q35.1-6.25 37.95-4.15 40.8-2.05 44.8-2.05L44.8-2.05ZM43.95-24.1Q41-24.1 38.65-22.73 36.3-21.35 35-18.88 33.7-16.4 33.7-13.25L33.7-13.25Q33.7-12.7 33.8-11.7L33.8-11.7 53.7-15.6Q53.35-17.95 52.05-19.9 50.75-21.85 48.65-22.98 46.55-24.1 43.95-24.1L43.95-24.1ZM75.05-3.4L76.09-1.65Q75.15-0.75 73.72-0.28 72.3 0.2 70.75 0.2L70.75 0.2Q67.34 0.2 65.5-1.68 63.65-3.55 63.65-6.9L63.65-6.9 63.65-31.8 66.15-31.8 66.15-26.1 74.45-26.1 74.45-23.95 66.15-23.95 66.15-7.15Q66.15-4.6 67.37-3.28 68.59-1.95 71-1.95L71-1.95Q73.45-1.95 75.05-3.4L75.05-3.4ZM81.64-22.1L81.44-35 83.74-35 83.54-22.1 81.64-22.1ZM99.34 0.2Q96.19 0.2 93.34-0.75 90.49-1.7 88.89-3.15L88.89-3.15 90.04-5.15Q91.64-3.8 94.17-2.9 96.69-2 99.44-2L99.44-2Q103.39-2 105.27-3.3 107.14-4.6 107.14-6.9L107.14-6.9Q107.14-8.55 106.12-9.5 105.09-10.45 103.59-10.9 102.09-11.35 99.44-11.85L99.44-11.85Q96.34-12.4 94.44-13.05 92.54-13.7 91.19-15.15 89.84-16.6 89.84-19.15L89.84-19.15Q89.84-22.25 92.42-24.28 94.99-26.3 99.74-26.3L99.74-26.3Q102.24-26.3 104.69-25.6 107.14-24.9 108.69-23.75L108.69-23.75 107.54-21.75Q105.94-22.9 103.89-23.5 101.84-24.1 99.69-24.1L99.69-24.1Q96.04-24.1 94.19-22.75 92.34-21.4 92.34-19.2L92.34-19.2Q92.34-17.45 93.39-16.48 94.44-15.5 95.97-15.03 97.49-14.55 100.24-14L100.24-14Q103.29-13.45 105.17-12.83 107.04-12.2 108.34-10.8 109.64-9.4 109.64-6.95L109.64-6.95Q109.64-3.7 106.94-1.75 104.24 0.2 99.34 0.2L99.34 0.2ZM139.49 0.25Q135.64 0.25 132.16-1.07 128.69-2.4 126.74-4.5L126.74-4.5 127.89-6.4Q129.74-4.45 132.86-3.23 135.99-2 139.44-2L139.44-2Q144.44-2 146.99-3.9 149.54-5.8 149.54-8.85L149.54-8.85Q149.54-11.2 148.19-12.6 146.84-14 144.84-14.75 142.84-15.5 139.44-16.3L139.44-16.3Q135.59-17.25 133.26-18.15 130.94-19.05 129.31-20.93 127.69-22.8 127.69-25.95L127.69-25.95Q127.69-28.5 129.04-30.63 130.39-32.75 133.16-34 135.94-35.25 140.09-35.25L140.09-35.25Q142.99-35.25 145.79-34.4 148.59-33.55 150.64-32.1L150.64-32.1 149.69-30.05Q147.59-31.5 145.06-32.25 142.54-33 140.09-33L140.09-33Q135.24-33 132.74-31.05 130.24-29.1 130.24-26L130.24-26Q130.24-23.65 131.59-22.25 132.94-20.85 134.94-20.1 136.94-19.35 140.39-18.5L140.39-18.5Q144.24-17.55 146.54-16.65 148.84-15.75 150.46-13.93 152.09-12.1 152.09-9L152.09-9Q152.09-6.45 150.71-4.35 149.34-2.25 146.49-1 143.64 0.25 139.49 0.25L139.49 0.25ZM172.68-26.3Q177.58-26.3 180.43-23.45 183.28-20.6 183.28-15.25L183.28-15.25 183.28 0 180.78 0 180.78-15.05Q180.78-19.45 178.56-21.75 176.33-24.05 172.33-24.05L172.33-24.05Q167.73-24.05 165.08-21.3 162.43-18.55 162.43-13.9L162.43-13.9 162.43 0 159.93 0 159.93-37.1 162.43-37.1 162.43-20.65Q163.78-23.35 166.43-24.83 169.08-26.3 172.68-26.3L172.68-26.3ZM203.83 0.2Q200.13 0.2 197.16-1.5 194.18-3.2 192.48-6.23 190.78-9.25 190.78-13.05L190.78-13.05Q190.78-16.85 192.48-19.88 194.18-22.9 197.16-24.6 200.13-26.3 203.83-26.3L203.83-26.3Q207.53-26.3 210.51-24.6 213.48-22.9 215.18-19.88 216.88-16.85 216.88-13.05L216.88-13.05Q216.88-9.25 215.18-6.23 213.48-3.2 210.51-1.5 207.53 0.2 203.83 0.2L203.83 0.2ZM203.83-2.05Q206.83-2.05 209.21-3.45 211.58-4.85 212.96-7.35 214.33-9.85 214.33-13.05L214.33-13.05Q214.33-16.25 212.96-18.75 211.58-21.25 209.21-22.65 206.83-24.05 203.83-24.05L203.83-24.05Q200.83-24.05 198.46-22.65 196.08-21.25 194.71-18.75 193.33-16.25 193.33-13.05L193.33-13.05Q193.33-9.85 194.71-7.35 196.08-4.85 198.46-3.45 200.83-2.05 203.83-2.05L203.83-2.05ZM237.73-26.3Q241.38-26.3 244.33-24.6 247.28-22.9 248.95-19.9 250.63-16.9 250.63-13.05L250.63-13.05Q250.63-9.2 248.95-6.18 247.28-3.15 244.33-1.48 241.38 0.2 237.73 0.2L237.73 0.2Q234.28 0.2 231.48-1.43 228.68-3.05 227.13-5.95L227.13-5.95 227.13 9.7 224.63 9.7 224.63-26.1 227.03-26.1 227.03-19.95Q228.58-22.95 231.4-24.63 234.23-26.3 237.73-26.3L237.73-26.3ZM237.58-2.05Q240.58-2.05 242.98-3.45 245.38-4.85 246.75-7.35 248.13-9.85 248.13-13.05L248.13-13.05Q248.13-16.25 246.75-18.75 245.38-21.25 242.98-22.65 240.58-24.05 237.58-24.05L237.58-24.05Q234.58-24.05 232.2-22.65 229.83-21.25 228.45-18.75 227.08-16.25 227.08-13.05L227.08-13.05Q227.08-9.85 228.45-7.35 229.83-4.85 232.2-3.45 234.58-2.05 237.58-2.05L237.58-2.05Z" opacity="1" transform="matrix(1,0,0,1,0,0)" fill="#ffffff" class="undefined-text-1" data-fill-palette-color="quaternary" id="text-1"></path></svg></g></svg></g></svg></g></svg></g></svg></g><defs></defs></svg><rect width="395.52" height="212.17618507669627" fill="none" stroke="none" visibility="hidden"></rect></g></svg></g></svg>