<?xml version="1.0" standalone="no"?>
<!DOCTYPE svg PUBLIC "-//W3C//DTD SVG 20010904//EN"
 "http://www.w3.org/TR/2001/REC-SVG-20010904/DTD/svg10.dtd">
<svg version="1.0" xmlns="http://www.w3.org/2000/svg"
 width="585.000000pt" height="238.000000pt" viewBox="0 0 585.000000 238.000000"
 preserveAspectRatio="xMidYMid meet">

<g transform="translate(0.000000,238.000000) scale(0.100000,-0.100000)"
fill="#000000" stroke="none">
<path d="M3104 1643 c-95 -170 -223 -328 -285 -354 -67 -27 -71 37 -9 134 16
26 36 47 45 47 12 0 13 -3 4 -19 -15 -22 -5 -51 16 -51 23 0 55 37 55 64 0 38
-25 56 -77 56 -45 0 -49 -3 -148 -100 -55 -55 -104 -100 -108 -100 -15 0 -6
33 28 100 19 38 35 76 35 85 0 38 -83 1 -124 -55 -35 -47 -94 -105 -100 -99
-3 2 7 31 21 62 l26 58 -20 27 c-11 15 -25 27 -30 27 -6 0 -47 -43 -91 -95
-121 -143 -154 -155 -96 -35 62 127 30 159 -78 77 l-64 -49 4 34 c5 36 -11 63
-37 63 -19 0 -157 -177 -146 -188 3 -4 22 10 41 30 43 47 42 40 -1 -42 -38
-69 -42 -86 -22 -93 24 -8 63 22 130 102 37 45 72 81 77 81 14 0 14 0 -22 -75
-35 -75 -31 -98 16 -103 31 -4 110 52 171 119 19 22 35 38 35 37 0 -2 -11 -25
-25 -52 -40 -80 -30 -117 29 -102 13 3 52 34 87 68 34 33 59 53 54 42 -25 -60
-28 -73 -22 -88 16 -42 66 -32 141 29 31 24 53 38 50 31 -7 -19 21 -72 41 -80
57 -21 134 11 205 85 l47 49 -18 -52 c-21 -64 -12 -88 33 -88 42 0 88 31 153
103 l56 62 -26 -55 c-28 -62 -30 -81 -13 -98 33 -33 91 -4 181 92 l58 61 -26
-49 c-14 -27 -25 -64 -25 -82 0 -31 3 -34 29 -34 21 0 46 16 95 61 36 33 66
59 66 56 0 -2 -6 -20 -14 -38 -19 -46 -6 -79 31 -79 41 0 78 28 175 132 l87
93 1 -52 0 -53 -36 0 c-53 0 -74 -15 -74 -54 0 -45 26 -66 82 -66 46 0 54 5
113 69 6 6 24 22 40 35 32 26 27 48 -6 27 -25 -15 -22 -18 -44 41 -19 52 -15
68 20 68 32 0 49 31 31 55 -10 14 -21 16 -52 11 -33 -6 -55 -24 -142 -113 -63
-66 -106 -103 -111 -97 -6 5 6 42 31 92 43 91 42 110 -9 97 -25 -6 -47 -27
-141 -135 -39 -45 -52 -32 -24 25 27 56 28 76 2 106 l-20 24 -53 -60 c-98
-112 -146 -160 -153 -152 -4 4 5 38 21 77 27 66 27 70 11 95 -28 43 -50 32
-123 -64 -67 -88 -99 -118 -111 -106 -3 3 24 66 61 141 37 74 67 147 67 163 0
25 -25 61 -43 61 -3 0 -18 -21 -33 -47z m676 -337 c0 -18 -30 -30 -43 -17 -5
5 -6 14 -3 20 10 16 46 13 46 -3z"/>
<path d="M3291 1654 c-27 -34 -27 -70 0 -84 30 -17 74 4 90 42 16 39 3 62 -38
66 -23 2 -36 -3 -52 -24z"/>
<path d="M1640 875 c0 -63 4 -105 10 -105 6 0 10 42 10 105 0 63 -4 105 -10
105 -6 0 -10 -42 -10 -105z"/>
<path d="M1970 950 c0 -16 5 -30 10 -30 6 0 10 14 10 30 0 17 -4 30 -10 30 -5
0 -10 -13 -10 -30z"/>
<path d="M2640 875 c0 -63 4 -105 10 -105 6 0 10 42 10 105 0 63 -4 105 -10
105 -6 0 -10 -42 -10 -105z"/>
<path d="M3280 876 c0 -64 4 -106 10 -106 6 0 10 25 10 55 0 42 4 57 16 62 31
12 49 -11 52 -66 4 -68 22 -66 22 3 0 66 -18 90 -61 81 -28 -6 -29 -5 -29 29
0 19 -4 38 -10 41 -6 4 -10 -32 -10 -99z"/>
<path d="M3020 950 c0 -5 5 -10 10 -10 6 0 10 5 10 10 0 6 -4 10 -10 10 -5 0
-10 -4 -10 -10z"/>
<path d="M1869 918 c-2 -54 4 -114 12 -130 6 -11 20 -18 37 -17 21 1 22 2 7 6
-28 7 -35 21 -35 71 0 37 3 42 23 43 l22 0 -22 9 c-13 5 -23 16 -23 25 0 24
-20 17 -21 -7z"/>
<path d="M3094 915 c-6 -13 -8 -27 -3 -32 4 -4 9 -30 11 -58 3 -47 5 -50 33
-53 l30 -3 -25 13 c-21 11 -25 21 -25 58 0 39 3 45 25 51 24 7 24 7 2 8 -13 1
-26 10 -30 20 -7 19 -8 19 -18 -4z"/>
<path d="M1735 885 c-30 -29 -33 -75 -7 -98 19 -18 82 -24 82 -8 0 5 -9 7 -20
4 -20 -5 -60 21 -60 39 0 4 20 8 45 8 41 0 45 2 45 24 0 27 -24 56 -46 56 -8
0 -26 -11 -39 -25z m63 -22 c3 -20 -1 -23 -32 -23 -38 0 -47 15 -24 38 20 20
53 10 56 -15z"/>
<path d="M2052 894 c-32 -22 -27 -41 19 -64 34 -18 39 -23 28 -36 -9 -11 -22
-14 -41 -10 -18 3 -27 2 -23 -4 10 -15 71 -12 85 5 18 22 5 44 -36 61 -42 18
-40 38 4 42 18 2 30 8 27 13 -9 14 -38 11 -63 -7z"/>
<path d="M2278 903 c-27 -4 -28 -6 -28 -69 0 -36 4 -64 10 -64 6 0 10 24 10
54 0 47 3 56 21 61 30 10 43 -8 50 -68 l6 -52 2 57 c1 48 4 58 21 63 33 11 50
-12 50 -66 0 -27 5 -49 10 -49 17 0 12 107 -6 124 -18 19 -24 19 -58 6 -16 -6
-27 -6 -31 0 -4 6 -12 9 -18 9 -7 -1 -24 -4 -39 -6z"/>
<path d="M2510 900 c-11 -7 -7 -10 18 -10 17 0 33 -4 34 -10 4 -30 0 -35 -32
-40 -31 -4 -35 -8 -35 -35 0 -29 2 -30 48 -31 l47 -1 0 53 c0 43 -4 56 -22 68
-26 18 -37 19 -58 6z m58 -86 c-5 -27 -34 -40 -52 -25 -21 18 -3 41 31 41 17
0 24 -5 21 -16z"/>
<path d="M2695 875 l-27 -34 29 -36 c27 -34 43 -44 43 -26 0 5 -7 14 -16 21
-35 30 -37 50 -8 81 15 16 23 29 16 29 -6 0 -23 -16 -37 -35z"/>
<path d="M2805 885 c-48 -47 -22 -116 43 -114 36 1 36 1 9 9 -32 10 -57 28
-57 41 0 5 22 9 49 9 47 0 48 1 43 28 -5 29 -27 52 -49 52 -8 0 -25 -11 -38
-25z m64 -14 c13 -24 5 -31 -36 -31 -36 0 -38 2 -23 31 14 24 46 25 59 0z"/>
<path d="M3455 900 c-16 -7 -13 -9 16 -9 58 -1 67 -51 9 -51 -34 0 -53 -26
-39 -53 7 -12 21 -16 54 -15 l45 2 0 48 c0 70 -33 100 -85 78z m63 -86 c-5
-27 -34 -40 -52 -25 -21 18 -3 41 31 41 17 0 24 -5 21 -16z"/>
<path d="M3613 903 c-22 -4 -23 -9 -23 -104 0 -59 4 -99 10 -99 6 0 10 16 10
35 0 31 3 35 28 35 33 0 45 8 61 37 15 29 5 69 -22 88 -22 15 -25 16 -64 8z
m67 -32 c15 -30 12 -56 -9 -75 -35 -32 -56 -17 -59 42 -3 52 -3 52 27 52 20 0
34 -7 41 -19z"/>
<path d="M3778 903 l-28 -4 0 -100 c0 -59 4 -99 10 -99 6 0 10 16 10 35 0 33
2 35 34 35 40 0 66 28 66 70 0 48 -34 71 -92 63z m60 -25 c32 -32 1 -102 -42
-96 -17 2 -22 11 -24 42 -2 21 -1 44 2 52 7 17 48 18 64 2z"/>
<path d="M3936 889 c-32 -25 -36 -77 -8 -102 19 -18 82 -24 82 -8 0 4 -11 6
-23 4 -23 -5 -57 18 -57 38 0 5 20 9 45 9 41 0 45 2 45 24 0 27 -23 56 -44 56
-7 0 -25 -9 -40 -21z m62 -26 c3 -20 -1 -23 -32 -23 -38 0 -47 15 -24 38 20
20 53 10 56 -15z"/>
<path d="M4098 903 c-27 -4 -28 -6 -28 -69 0 -36 4 -64 10 -64 6 0 10 25 10
55 0 42 4 57 16 62 31 12 49 -11 52 -66 4 -68 22 -66 22 3 0 55 -17 88 -43 85
-7 -1 -24 -4 -39 -6z"/>
<path d="M3020 835 c0 -37 4 -65 10 -65 6 0 10 28 10 65 0 37 -4 65 -10 65 -6
0 -10 -28 -10 -65z"/>
</g>
</svg>
